<?xml version="1.0" encoding="utf-8"?>
<svg xmlns="http://www.w3.org/2000/svg" viewBox="0 0 1200.0008 1051.441" width="1200px" height="1051.44px">
  <g id="Livello_1" transform="matrix(0.5403079986572266, 0, 0, 0.5403079986572266, 335.1530456542969, 369.92727661132824)" style="">
    <circle fill="#036C70" cx="627.654" cy="-128.66" r="556" style="stroke-width: 1;"/>
    <circle fill="#1A9BA1" cx="1090.99" cy="381.01" r="509.667" style="stroke-width: 1;"/>
    <circle fill="#37C6D0" cx="697.154" cy="867.51" r="393.833" style="stroke-width: 1;"/>
    <path opacity="0.1" enable-background="new    " d="M 720.321 -182.87 L 720.321 805.886 C 720.091 840.243 699.271 871.108 667.501 884.189 C 657.385 888.468 646.514 890.673 635.531 890.676 L 303.784 890.676 C 303.321 882.799 303.321 875.386 303.321 867.509 C 303.167 859.775 303.476 852.039 304.248 844.342 C 312.728 696.236 403.969 565.56 540.085 506.572 L 540.085 420.392 C 237.153 372.387 30.493 87.897 78.498 -215.03 C 78.831 -217.13 79.175 -219.23 79.532 -221.32 C 81.838 -236.95 85.088 -252.42 89.262 -267.66 L 635.532 -267.66 C 682.285 -267.48 720.143 -229.62 720.321 -182.87 Z" style="stroke-width: 1;"/>
    <path opacity="0.2" enable-background="new    " d="M 589.198 -221.32 L 79.531 -221.32 C 28.045 81.062 231.439 367.932 533.824 419.418 C 542.98 420.977 552.174 422.306 561.397 423.404 C 417.764 491.514 313.097 684.956 304.201 844.342 C 303.43 852.039 303.12 859.775 303.274 867.509 C 303.274 875.386 303.274 882.799 303.737 890.676 C 304.573 906.25 306.587 921.739 309.76 937.009 L 589.15 937.009 C 623.507 936.779 654.372 915.959 667.453 884.189 C 671.732 874.074 673.938 863.202 673.94 852.219 L 673.94 -136.53 C 673.764 -183.27 635.934 -221.12 589.198 -221.32 Z" style="stroke-width: 1;"/>
    <path opacity="0.2" enable-background="new    " d="M 589.198 -221.32 L 79.531 -221.32 C 28.056 81.09 231.481 367.973 533.895 419.449 C 540.081 420.502 546.284 421.45 552.502 422.293 C 413.502 495.314 312.959 688.293 304.248 844.343 L 589.198 844.343 C 635.879 843.99 673.635 806.234 673.988 759.553 L 673.988 -136.53 C 673.81 -183.29 635.952 -221.15 589.198 -221.32 Z" style="stroke-width: 1;"/>
    <path opacity="0.2" enable-background="new    " d="M 542.864 -221.32 L 79.531 -221.32 C 30.925 64.158 209.81 339.08 490.508 410.292 C 384.222 531.727 319.032 683.644 304.248 844.343 L 542.865 844.343 C 589.619 844.165 627.477 806.307 627.655 759.553 L 627.655 -136.53 C 627.629 -183.35 589.682 -221.3 542.864 -221.32 Z" style="stroke-width: 1;"/>
    <linearGradient id="SVGID_1_" gradientUnits="userSpaceOnUse" x1="177.0788" y1="1551.0284" x2="842.2545" y2="398.9716" gradientTransform="matrix(1.224291, 0, 0, -1, -620.307245, 1263.343384)">
      <stop offset="0" style="stop-color:#058F92"/>
      <stop offset="0.5" style="stop-color:#038489"/>
      <stop offset="1" style="stop-color:#026D71"/>
    </linearGradient>
    <path fill="url(#SVGID_1_)" d="M -516.36 -221.32 L 523.677 -221.32 C 581.103 -221.32 627.654 -183.3 627.654 -136.4 L 627.654 713.08 C 627.654 759.985 581.103 798.009 523.677 798.009 L -516.36 798.009 C -573.76 798.009 -620.3 759.985 -620.3 713.08 L -620.3 -136.4 C -620.3 -183.3 -573.76 -221.32 -516.36 -221.32 Z" style="stroke-width: 1;"/>
  </g>
  <g style="" transform="matrix(0.09206700325012207, 0, 0, 0.09206700325012207, 159.66213989257812, 250.14051818847656)" fill="#036C70&quot; transform=&quot;matrix(0.084497, 0, 0, 0.084497, 752.131592, 848.141052)">
    <g transform="matrix(1, 0, 0, 1, 1324.483154, -1.000244)">
      <rect class="fil0" x="-941.41" y="1979.89" width="598" height="598" rx="49" ry="49" style="stroke-width: 1; fill: rgb(255, 255, 255);"/>
      <rect class="fil0" x="-941.41" y="1979.89" width="598" height="598" rx="49" ry="49" style="stroke-width: 1; fill: rgb(255, 255, 255);"/>
    </g>
    <g transform="matrix(1, 0, 0, 1, 1324.483154, -1.000244)">
      <rect class="fil0" x="-210.41" y="1979.89" width="598" height="598" rx="49" ry="49" style="stroke-width: 1; fill: rgb(255, 255, 255);"/>
      <rect class="fil0" x="-210.41" y="1979.89" width="598" height="598" rx="49" ry="49" style="stroke-width: 1; fill: rgb(255, 255, 255);"/>
    </g>
    <g transform="matrix(1, 0, 0, 1, 1324.483154, -1.000244)">
      <rect class="fil0" x="521.588" y="1979.89" width="598" height="598" rx="49" ry="49" style="stroke-width: 1; fill: rgb(255, 255, 255);"/>
      <rect class="fil0" x="521.588" y="1979.89" width="598" height="598" rx="49" ry="49" style="stroke-width: 1; fill: rgb(255, 255, 255);"/>
    </g>
    <g transform="matrix(1, 0, 0, 1, 1324.483154, -1.000244)">
      <rect class="fil0" x="1252.59" y="1979.89" width="598" height="598" rx="49" ry="49" style="stroke-width: 1; fill: rgb(255, 255, 255);"/>
      <rect class="fil0" x="1252.59" y="1979.89" width="598" height="598" rx="49" ry="49" style="stroke-width: 1; fill: rgb(255, 255, 255);"/>
    </g>
    <rect class="fil0" x="600.076" y="2695.89" width="598" height="598" rx="49" ry="49" style="stroke-width: 1; fill: rgb(255, 255, 255);"/>
    <rect class="fil0" x="1332.08" y="2695.89" width="598" height="598" rx="49" ry="49" style="stroke-width: 1; fill: rgb(255, 255, 255);"/>
    <rect class="fil0" x="2063.09" y="2695.89" width="598" height="598" rx="49" ry="49" style="stroke-width: 1; fill: rgb(255, 255, 255);"/>
    <rect class="fil0" x="798.074" y="3417.89" width="598" height="598" rx="49" ry="49" style="stroke-width: 1; fill: rgb(255, 255, 255);"/>
    <rect class="fil0" x="1530.08" y="3417.89" width="598" height="598" rx="49" ry="49" style="stroke-width: 1; fill: rgb(255, 255, 255);"/>
    <rect class="fil0" x="2261.09" y="3417.89" width="598" height="598" rx="49" ry="49" style="stroke-width: 1; fill: rgb(255, 255, 255);"/>
    <path class="fil0" d="M 3348.44 1979.89 L 4260.69 1979.89 C 4292.6 1979.89 4318.59 2001.89 4318.59 2028.89 L 4318.59 2527.89 C 4318.59 2554.89 4292.6 2576.89 4260.69 2576.89 L 3348.44 2576.89 C 3316.53 2576.89 3290.54 2554.89 3290.54 2527.89 L 3290.54 2028.89 C 3290.54 2001.89 3316.53 1979.89 3348.44 1979.89 Z" style="stroke-width: 1; fill: rgb(255, 255, 255);"/>
    <path class="fil0" d="M -547.52 1978.89 L 224.592 1978.89 C 251.592 1978.89 273.591 2000.89 273.591 2027.89 L 273.591 2526.89 C 273.591 2553.89 251.592 2575.89 224.592 2575.89 L -547.52 2575.89 C -574.52 2575.89 -596.52 2553.89 -596.52 2526.89 L -596.52 2027.89 C -596.52 2000.89 -574.52 1978.89 -547.52 1978.89 Z" style="stroke-width: 1; fill: rgb(255, 255, 255);"/>
    <path class="fil0" d="M -547.52 2695.89 L 442.37 2695.89 C 469.31 2695.89 491.267 2717.89 491.267 2744.89 L 491.267 3243.89 C 491.267 3270.89 469.31 3292.89 442.37 3292.89 L -547.52 3292.89 C -574.52 3292.89 -596.52 3270.89 -596.52 3243.89 L -596.52 2744.89 C -596.52 2717.89 -574.52 2695.89 -547.52 2695.89 Z" style="stroke-width: 1; fill: rgb(255, 255, 255);"/>
    <path class="fil0" d="M -547.52 3417.89 L 640.006 3417.89 C 666.946 3417.89 688.905 3439.89 688.905 3466.89 L 688.905 3965.89 C 688.905 3992.89 666.946 4014.89 640.006 4014.89 L -547.52 4014.89 C -574.52 4014.89 -596.52 3992.89 -596.52 3965.89 L -596.52 3466.89 C -596.52 3439.89 -574.52 3417.89 -547.52 3417.89 Z" style="stroke-width: 1; fill: rgb(255, 255, 255);"/>
    <path class="fil0" d="M -547.52 4130.89 L 224.595 4130.89 C 251.595 4130.89 273.595 4152.89 273.595 4179.89 L 273.595 4678.89 C 273.595 4705.89 251.595 4727.89 224.595 4727.89 L -547.52 4727.89 C -574.52 4727.89 -596.52 4705.89 -596.52 4678.89 L -596.52 4179.89 C -596.52 4152.89 -574.52 4130.89 -547.52 4130.89 Z" style="stroke-width: 1; fill: rgb(255, 255, 255);"/>
    <path class="fil0" d="M 3444.35 4130.89 L 4266.41 4130.89 C 4295.16 4130.89 4318.59 4152.89 4318.59 4179.89 L 4318.59 4678.89 C 4318.59 4705.89 4295.16 4727.89 4266.41 4727.89 L 3444.35 4727.89 C 3415.59 4727.89 3392.17 4705.89 3392.17 4678.89 L 3392.17 4179.89 C 3392.17 4152.89 3415.59 4130.89 3444.35 4130.89 Z" style="stroke-width: 1; fill: rgb(255, 255, 255);"/>
    <path class="fil0" d="M 473.428 4130.89 L 3185.16 4130.89 C 3200.86 4130.89 3213.68 4152.89 3213.68 4179.89 L 3213.68 4678.89 C 3213.68 4705.89 3200.86 4727.89 3185.16 4727.89 L 473.428 4727.89 C 457.753 4727.89 444.974 4705.89 444.974 4678.89 L 444.974 4179.89 C 444.974 4152.89 457.753 4130.89 473.428 4130.89 Z" style="stroke-width: 1; fill: rgb(255, 255, 255);"/>
    <rect class="fil0" width="598" height="598" rx="49" ry="49" x="-596.52" y="1263.89" style="stroke-width: 1; fill: rgb(255, 255, 255);"/>
    <rect class="fil0" x="110.083" width="598" height="598" rx="49" ry="49" y="1263.89" style="stroke-width: 1; fill: rgb(255, 255, 255);"/>
    <rect class="fil0" x="841.074" width="598" height="598" rx="49" ry="49" y="1263.89" style="stroke-width: 1; fill: rgb(255, 255, 255);"/>
    <rect class="fil0" x="1573.08" width="598" height="598" rx="49" ry="49" y="1263.89" style="stroke-width: 1; fill: rgb(255, 255, 255);"/>
    <rect class="fil0" x="2304.09" width="598" height="598" rx="49" ry="49" y="1263.89" style="stroke-width: 1; fill: rgb(255, 255, 255);"/>
    <rect class="fil0" x="3036.09" width="598" height="598" rx="49" ry="49" y="1263.89" style="stroke-width: 1; fill: rgb(255, 255, 255);"/>
    <rect class="fil0" width="563.292" height="598" rx="49" ry="49" x="3755.3" y="1263.89" style="stroke-width: 1; fill: rgb(255, 255, 255);"/>
    <path class="fil0" d="M 2836.79 2696.89 L 4248.84 2696.89 C 4287.27 2696.89 4318.59 2718.89 4318.59 2745.89 L 4318.59 3244.89 C 4318.59 3271.89 4287.27 3293.89 4248.84 3293.89 L 2836.79 3293.89 C 2798.28 3293.89 2766.9 3271.89 2766.9 3244.89 L 2766.9 2745.89 C 2766.9 2718.89 2798.28 2696.89 2836.79 2696.89 Z" style="stroke-width: 1; fill: rgb(255, 255, 255);"/>
    <path class="fil0" d="M 3027.23 3417.89 L 4267.52 3417.89 C 4295.66 3417.89 4318.59 3439.89 4318.59 3466.89 L 4318.59 3965.89 C 4318.59 3992.89 4295.66 4014.89 4267.52 4014.89 L 3027.23 4014.89 C 2999.05 4014.89 2976.06 3992.89 2976.06 3965.89 L 2976.06 3466.89 C 2976.06 3439.89 2999.05 3417.89 3027.23 3417.89 Z" style="stroke-width: 1; fill: rgb(255, 255, 255);"/>
  </g>
</svg>